<?xml version="1.0" encoding="UTF-8"?>
<svg version="1.1" xmlns="http://www.w3.org/2000/svg" width="320" height="320">
<path d="M0 0 C9.21101519 6.64049933 9.21101519 6.64049933 10.10693359 10.95947266 C10.35768091 12.94575898 10.52792838 14.94181854 10.6875 16.9375 C11.92886719 16.89109375 13.17023438 16.8446875 14.44921875 16.796875 C16.09112171 16.75934579 17.73305077 16.72294686 19.375 16.6875 C20.19162109 16.65398438 21.00824219 16.62046875 21.84960938 16.5859375 C22.64560547 16.57304688 23.44160156 16.56015625 24.26171875 16.546875 C25.35359497 16.5154541 25.35359497 16.5154541 26.4675293 16.48339844 C28.6875 16.9375 28.6875 16.9375 30.91796875 18.92553711 C34.75976699 21.71646265 37.79222013 21.51292879 42.42578125 21.51953125 C44.15041096 21.56499001 45.87502 21.61123883 47.59960938 21.65820312 C50.29848774 21.70943059 52.99678984 21.74997064 55.69604492 21.7746582 C72.73320537 21.9787987 72.73320537 21.9787987 77.79296875 26.26171875 C81.16930726 29.95545216 82.91968164 33.40403532 83.00634766 38.43066406 C83.03615219 39.75158051 83.03615219 39.75158051 83.06655884 41.09918213 C83.08388565 42.51188385 83.08388565 42.51188385 83.1015625 43.953125 C83.13061172 45.40957428 83.13061172 45.40957428 83.1602478 46.89544678 C83.21996509 49.99270886 83.2663978 53.09000826 83.3125 56.1875 C83.35068698 58.28907859 83.38973914 60.39064165 83.4296875 62.4921875 C83.52566031 67.64049868 83.6097206 72.78888312 83.6875 77.9375 C84.36369385 76.83398193 85.0398877 75.73046387 85.73657227 74.59350586 C86.63795789 73.13381242 87.5395818 71.67426612 88.44140625 70.21484375 C88.88536743 69.48890015 89.32932861 68.76295654 89.78674316 68.01501465 C97.16276571 56.11241143 97.16276571 56.11241143 103.6875 53.9375 C111.01900968 53.31618562 115.73257605 54.8408787 121.5234375 59.375 C125.13943611 62.90611602 126.08060316 65.62994315 126.1875 70.6875 C126.06091894 74.46383489 125.84022428 75.70841357 123.6875 78.9375 C124.1825 79.2675 124.6775 79.5975 125.1875 79.9375 C127.08379191 82.46588921 127.18853776 84.51076766 127.12060547 87.62304688 C126.24480501 92.30319813 123.23481064 95.8919901 120.5 99.6875 C119.21457688 101.53536792 117.93076363 103.38435659 116.6484375 105.234375 C115.99069336 106.17345703 115.33294922 107.11253906 114.65527344 108.08007812 C110.96562212 113.43785468 107.50826807 118.94910667 104.0402832 124.45214844 C101.29885031 128.72908457 98.68723922 132.71709806 94.6875 135.9375 C92.265625 136.390625 92.265625 136.390625 89.9375 136.1875 C88.52213502 136.08439394 87.10540549 135.99609114 85.6875 135.9375 C84.01091099 137.61408901 84.47861996 139.68776153 84.40625 141.99609375 C84.36967285 143.13973389 84.3330957 144.28337402 84.29541016 145.46166992 C84.24199463 147.39876831 84.24199463 147.39876831 84.1875 149.375 C84.14514355 150.74129617 84.10265842 152.10758835 84.06005859 153.47387695 C83.76154456 163.58044021 83.62111023 173.68670757 83.5078125 183.796875 C83.45828745 187.75017972 83.40797808 191.70347402 83.35766602 195.6567688 C83.32755877 198.30195496 83.3029806 200.94720984 83.28393555 203.59249878 C83.25682739 207.35749771 83.21198738 211.12193545 83.1640625 214.88671875 C83.16084991 216.02820374 83.15763733 217.16968872 83.15432739 218.34576416 C83.13772064 219.40430603 83.12111389 220.4628479 83.10400391 221.5534668 C83.09187363 222.93758003 83.09187363 222.93758003 83.07949829 224.34965515 C82.58291214 227.62795496 81.69013708 229.27792698 79.6875 231.9375 C79.29142831 232.47179815 78.89535662 233.00609631 78.48728275 233.55658531 C74.67128742 237.74174552 71.20469659 238.39183119 65.63551331 238.70613098 C62.71368561 238.76767073 59.79551151 238.75140185 56.87329102 238.72973633 C55.25962672 238.73951213 53.6459761 238.75182128 52.03234863 238.76646423 C47.66227392 238.7980204 43.29302751 238.79161828 38.92289472 238.77638459 C35.26981174 238.76721896 31.61687937 238.77694546 27.96380562 238.78672332 C19.3434864 238.80961401 10.72356733 238.80207472 2.10327148 238.7746582 C-6.77947791 238.74685639 -15.66121913 238.76621218 -24.54388374 238.80953389 C-32.18068426 238.84534304 -39.81717446 238.85384976 -47.45404679 238.84014148 C-52.0106696 238.83210769 -56.56672795 238.83383633 -61.12328911 238.86100197 C-65.40917625 238.88519488 -69.69366375 238.87509176 -73.97945404 238.83901405 C-75.54833109 238.83138354 -77.11731885 238.8355625 -78.68612099 238.85268784 C-91.98706919 238.98585842 -91.98706919 238.98585842 -97.18397522 234.63188171 C-101.85251014 229.80254007 -102.60730829 225.80861286 -102.57319641 219.20779419 C-102.57702196 218.42456783 -102.58084751 217.64134147 -102.58478898 216.83438098 C-102.59511566 214.20739033 -102.59112746 211.58061839 -102.5871582 208.95361328 C-102.59150489 207.07115476 -102.59668789 205.18869801 -102.60264587 203.3062439 C-102.61605249 198.19051868 -102.61661264 193.07486727 -102.61408257 187.9591279 C-102.61301389 183.68969275 -102.61789366 179.42027259 -102.622688 175.15084064 C-102.63378915 165.07857639 -102.63421731 155.00634944 -102.62817383 144.93408203 C-102.6221339 134.54125593 -102.63444418 124.14856522 -102.6557439 113.75576222 C-102.67335475 104.83505837 -102.67936203 95.91439762 -102.67610615 86.99367702 C-102.67429217 81.66482608 -102.6769409 76.33607169 -102.69082069 71.00723648 C-102.70338581 65.99543609 -102.70146735 60.98384682 -102.68840981 55.97204971 C-102.68604152 54.1330254 -102.6887877 52.2939863 -102.69703293 50.45497894 C-102.70748097 47.94346485 -102.69941554 45.43266162 -102.6867218 42.9211731 C-102.69409609 42.19431655 -102.70147037 41.46746001 -102.70906812 40.7185775 C-102.64346929 34.5443101 -100.87338935 30.69350052 -96.8125 26.125 C-92.55584909 22.40043045 -88.27508197 22.71846645 -82.8828125 22.54296875 C-81.18355803 22.47418403 -79.48434 22.40449429 -77.78515625 22.33398438 C-75.11035108 22.22668771 -72.43582984 22.12494624 -69.76025391 22.03881836 C-67.17511504 21.95321931 -64.59186619 21.84377196 -62.0078125 21.73046875 C-60.81383347 21.70052071 -60.81383347 21.70052071 -59.59573364 21.66996765 C-54.48719069 21.4215134 -52.22725793 20.42341925 -48.3125 16.9375 C-46.0925293 16.39160156 -46.0925293 16.39160156 -43.88671875 16.328125 C-43.09072266 16.29589844 -42.29472656 16.26367188 -41.47460938 16.23046875 C-40.24967773 16.20919922 -40.24967773 16.20919922 -39 16.1875 C-38.16404297 16.15785156 -37.32808594 16.12820312 -36.46679688 16.09765625 C-34.41587515 16.02733893 -32.36418438 15.98011027 -30.3125 15.9375 C-30.02632813 14.84824219 -29.74015625 13.75898437 -29.4453125 12.63671875 C-27.70767663 6.96243887 -24.76908417 3.53638563 -19.75 0.5625 C-13.51140001 -2.2667702 -6.43467481 -2.0639523 0 0 Z " fill="#1A1C1B" transform="translate(158.3125,33.0625)"/>
<path d="M0 0 C0.9796875 0.01289062 1.959375 0.02578125 2.96875 0.0390625 C3.98453125 0.07257813 5.0003125 0.10609375 6.046875 0.140625 C7.078125 0.15867187 8.109375 0.17671875 9.171875 0.1953125 C11.71448564 0.24239788 14.25520662 0.3081445 16.796875 0.390625 C17.085625 1.504375 17.374375 2.618125 17.671875 3.765625 C18.48928829 7.39353592 18.48928829 7.39353592 20.796875 9.390625 C23.33471332 9.59940538 25.76438394 9.68428611 28.30419922 9.68115234 C29.07835175 9.68786957 29.85250427 9.69458679 30.65011597 9.70150757 C33.21732955 9.72055406 35.7842826 9.72441519 38.3515625 9.7265625 C40.1327424 9.73298625 41.91392123 9.73971428 43.69509888 9.74673462 C47.43266242 9.75872433 51.17013342 9.76241375 54.90771484 9.76123047 C59.69867435 9.76102728 64.48904064 9.78832141 69.27985954 9.82277489 C72.96016162 9.84500676 76.64032017 9.84906914 80.32068253 9.84801102 C82.08694629 9.85037289 83.85321367 9.85922932 85.61941147 9.87467575 C88.09028437 9.89425954 90.55986832 9.88852828 93.03076172 9.87646484 C94.12656555 9.89332336 94.12656555 9.89332336 95.24450684 9.91052246 C98.66186567 9.86809769 100.48257529 9.63016618 103.23538208 7.53213501 C104.99297442 5.12168438 105.46992639 3.33316253 105.796875 0.390625 C109.38005458 0.30341581 112.96296067 0.25016388 116.546875 0.203125 C117.56265625 0.17798828 118.5784375 0.15285156 119.625 0.12695312 C120.6046875 0.11728516 121.584375 0.10761719 122.59375 0.09765625 C123.49448242 0.0819458 124.39521484 0.06623535 125.32324219 0.05004883 C128.41822848 0.47617456 129.58215865 1.18839324 131.796875 3.390625 C132.3653717 6.23631287 132.3653717 6.23631287 132.45727539 9.74780273 C132.51976219 11.72277992 132.51976219 11.72277992 132.58351135 13.73765564 C132.60625655 15.18314083 132.62652906 16.62866671 132.64453125 18.07421875 C132.66336774 19.17451762 132.66336774 19.17451762 132.68258476 20.29704475 C132.74851053 24.19749428 132.79041262 28.09735702 132.81274414 31.99829102 C132.83457382 35.18993466 132.89642219 38.37654089 132.99731445 41.56665039 C133.58837434 60.63488174 133.36688035 75.21151811 120.40054321 90.44955444 C118.09972975 93.23444551 116.31524605 96.17954819 114.45703125 99.27734375 C113.84923828 100.25509766 113.24144531 101.23285156 112.61523438 102.24023438 C111.74608398 103.64499023 111.74608398 103.64499023 110.859375 105.078125 C109.643276 107.04120086 108.42584797 109.00345409 107.20703125 110.96484375 C106.63871582 111.88313965 106.07040039 112.80143555 105.48486328 113.74755859 C103.42982459 116.96535565 101.22676349 120.06502896 98.95874023 123.13598633 C97.31681025 126.01973409 97.31681025 126.01973409 96.796875 132.390625 C81.946875 132.720625 67.096875 133.050625 51.796875 133.390625 C51.796875 134.710625 51.796875 136.030625 51.796875 137.390625 C65.986875 137.720625 80.176875 138.050625 94.796875 138.390625 C93.796875 150.390625 93.796875 150.390625 92.796875 151.390625 C92.75594563 153.72359933 92.75445777 156.05767725 92.796875 158.390625 C100.10502531 158.23900362 104.78786793 154.4381331 110.609375 150.328125 C112.48823707 149.02092482 114.36962019 147.71733823 116.25390625 146.41796875 C117.07866455 145.83781006 117.90342285 145.25765137 118.75317383 144.65991211 C120.796875 143.390625 120.796875 143.390625 122.796875 143.390625 C123.003125 142.730625 123.209375 142.070625 123.421875 141.390625 C125.29783965 137.29761122 127.88175726 133.81567588 130.796875 130.390625 C131.126875 130.390625 131.456875 130.390625 131.796875 130.390625 C131.87107527 135.87155194 131.9255008 141.35218599 131.96166992 146.83349609 C131.97674914 148.69780572 131.99721561 150.56207992 132.02319336 152.42626953 C132.05961496 155.10718533 132.0766099 157.7876318 132.08984375 160.46875 C132.10532761 161.30118225 132.12081146 162.1336145 132.13676453 162.99127197 C132.13710442 164.16203278 132.13710442 164.16203278 132.13745117 165.35644531 C132.14744392 166.38236786 132.14744392 166.38236786 132.15763855 167.42901611 C131.65970808 170.13645379 130.69361466 171.39995133 128.796875 173.390625 C126.32776642 173.89398956 126.32776642 173.89398956 123.33117676 173.89855957 C122.19547745 173.90983887 121.05977814 173.92111816 119.8896637 173.93273926 C118.01938759 173.92059387 118.01938759 173.92059387 116.11132812 173.90820312 C114.14280128 173.91871704 114.14280128 173.91871704 112.13450623 173.92944336 C108.53320775 173.94769716 104.93236701 173.9406011 101.33106041 173.92792702 C97.56481047 173.91780981 93.79860009 173.92718912 90.03234863 173.93347168 C83.7072037 173.94075186 77.3822455 173.93115081 71.05712891 173.91210938 C63.74122227 173.89033975 56.42576149 173.89739087 49.10986567 173.919415 C42.83206439 173.93755859 36.55439745 173.94013248 30.27657843 173.92966032 C26.52558425 173.92341959 22.77479973 173.92260545 19.02381897 173.93580627 C14.84308403 173.94949141 10.66311943 173.93053226 6.48242188 173.90820312 C5.23557114 173.91630005 3.9887204 173.92439697 2.7040863 173.93273926 C1.56838699 173.92145996 0.43268768 173.91018066 -0.73742676 173.89855957 C-1.72630135 173.89705147 -2.71517593 173.89554337 -3.73401642 173.89398956 C-6.203125 173.390625 -6.203125 173.390625 -8.02050114 171.77876282 C-9.59040505 168.60856897 -9.58368816 166.21024377 -9.59080505 162.67248535 C-9.59619059 161.99810378 -9.60157613 161.3237222 -9.60712487 160.62890482 C-9.62142702 158.37025587 -9.61429553 156.11219114 -9.60717773 153.85351562 C-9.6128801 152.2338158 -9.61984384 150.61411999 -9.62797546 148.99443054 C-9.64593562 144.59572095 -9.6447333 140.19721053 -9.63903308 135.79847527 C-9.63594574 132.1278071 -9.64202852 128.45717745 -9.64807183 124.78651476 C-9.66212446 116.1286401 -9.66054927 107.4708641 -9.64916992 98.81298828 C-9.63768406 89.87650952 -9.65177049 80.9403307 -9.6785664 72.00389147 C-9.70070433 64.33415119 -9.7073652 56.66450521 -9.70148998 48.99473524 C-9.69811509 44.41262092 -9.70057084 39.83069895 -9.71774101 35.24861145 C-9.73317809 30.94096002 -9.72929094 26.633754 -9.71043587 22.32612038 C-9.70674115 20.74426676 -9.70988411 19.16238037 -9.72032166 17.58055687 C-9.73347386 15.42277553 -9.72203802 13.26648138 -9.70433044 11.10876465 C-9.70412116 9.90088036 -9.70391188 8.69299606 -9.70369625 7.44850922 C-8.76050705 1.68676529 -5.55272727 -0.12913319 0 0 Z " fill="#F8F8F8" transform="translate(87.203125,75.609375)"/>
<path d="M0 0 C0.79056793 0.00990463 1.58113586 0.01980927 2.3956604 0.03001404 C4.90373784 0.06898805 7.40732457 0.1567566 9.9140625 0.24609375 C11.62103021 0.28123054 13.32806703 0.31316542 15.03515625 0.34179688 C19.20483707 0.41869154 23.37119045 0.53933833 27.5390625 0.68359375 C27.5390625 3.32359375 27.5390625 5.96359375 27.5390625 8.68359375 C26.84345215 8.68770264 26.1478418 8.69181152 25.43115234 8.69604492 C22.25794447 8.72908265 19.08663059 8.79973841 15.9140625 8.87109375 C14.27244141 8.87979492 14.27244141 8.87979492 12.59765625 8.88867188 C5.72561619 8.97668031 5.72561619 8.97668031 -0.171875 12.109375 C-3.68255793 16.05739556 -3.58882449 18.08278778 -3.60137939 23.31307983 C-3.60435052 24.00208677 -3.60732164 24.6910937 -3.6103828 25.40097964 C-3.61908805 27.72094518 -3.62057957 30.04085924 -3.62207031 32.36083984 C-3.62669717 34.01964936 -3.63172165 35.67845781 -3.63711548 37.33726501 C-3.65025367 41.85173358 -3.65668713 46.36618727 -3.66112614 50.88067198 C-3.6640544 53.69923447 -3.66815872 56.51779287 -3.67263031 59.3363533 C-3.68630859 68.14950173 -3.69597379 76.96264084 -3.6998322 85.77579916 C-3.7043148 95.95958885 -3.72187066 106.14324444 -3.7508328 116.32699335 C-3.77242646 124.19200205 -3.78253523 132.05697297 -3.78387332 139.92201102 C-3.78492296 144.62262408 -3.79086439 149.32311115 -3.80869293 154.02369308 C-3.8251338 158.44449788 -3.82734861 162.86508143 -3.81855392 167.28590584 C-3.81778142 168.90969115 -3.82215424 170.53348816 -3.83201218 172.15724373 C-3.84466989 174.37180829 -3.8388893 176.58558192 -3.82843018 178.80014038 C-3.82989674 180.04011969 -3.8313633 181.28009899 -3.8328743 182.55765343 C-3.43045835 185.93975554 -2.65233402 187.16912903 -0.4609375 189.68359375 C-0.4609375 190.34359375 -0.4609375 191.00359375 -0.4609375 191.68359375 C3.23546384 193.37614774 6.12562044 193.93707279 10.1803894 193.95101929 C11.30464325 193.95954926 12.42889709 193.96807922 13.58721924 193.97686768 C15.42325714 193.97550812 15.42325714 193.97550812 17.29638672 193.97412109 C19.24108353 193.98419693 19.24108353 193.98419693 21.22506714 193.99447632 C24.77473359 194.01211405 28.32430357 194.01683074 31.87400961 194.01810789 C34.09377255 194.01953126 36.3135111 194.02380437 38.53326797 194.02910233 C46.28309939 194.04759493 54.03286209 194.05577387 61.78271484 194.05419922 C68.99744573 194.05299788 76.21187744 194.07410043 83.42653263 194.10568655 C89.62882892 194.13186922 95.83102761 194.14256569 102.03337872 194.1412884 C105.73420115 194.14077937 109.43475756 194.14642982 113.13552475 194.1676445 C117.26487314 194.19067076 121.39355423 194.18149391 125.52294922 194.16943359 C127.35291443 194.18629211 127.35291443 194.18629211 129.21984863 194.20349121 C135.8362066 194.15436758 140.26307316 193.8489148 145.5390625 189.68359375 C147.68357819 186.76274718 147.77275012 184.33642335 147.71508789 180.77001953 C147.70131859 179.30666672 147.70131859 179.30666672 147.68727112 177.81375122 C147.67058884 176.76275238 147.65390656 175.71175354 147.63671875 174.62890625 C147.63265027 172.38151325 147.63076939 170.13411543 147.63085938 167.88671875 C147.62279993 164.36009915 147.6020187 160.83572351 147.54272461 157.30957031 C147.3256175 142.99059903 147.26312774 131.51841895 157.5390625 120.68359375 C157.8690625 120.68359375 158.1990625 120.68359375 158.5390625 120.68359375 C158.65495421 130.63666786 158.74377669 140.58958125 158.79812336 150.54319286 C158.82420833 155.1651869 158.8595859 159.78671906 158.91625977 164.40844727 C158.97061939 168.86940863 159.00049132 173.32992598 159.01344872 177.79119301 C159.02268157 179.49248558 159.04071163 181.19375406 159.06771278 182.89485741 C159.10405754 185.2796399 159.10900587 187.66259217 159.10668945 190.04760742 C159.13365402 191.10065315 159.13365402 191.10065315 159.16116333 192.17497253 C159.12001857 196.09448571 158.64175973 197.56255069 156.06608582 200.5983429 C155.23216812 201.28647568 154.39825043 201.97460846 153.5390625 202.68359375 C153.2090625 203.01359375 152.8790625 203.34359375 152.5390625 203.68359375 C150.47733792 203.79577971 148.41172506 203.83663913 146.34700012 203.85095215 C145.69292716 203.85674553 145.0388542 203.86253892 144.36496085 203.86850786 C142.15713287 203.88665109 139.94933064 203.89746343 137.74145508 203.90820312 C136.16485354 203.91937252 134.58825441 203.93088565 133.01165771 203.94271851 C127.81900359 203.97935043 122.62632477 204.00450665 117.43359375 204.02734375 C116.10950772 204.03326255 116.10950772 204.03326255 114.75867248 204.03930092 C106.43661029 204.07572634 98.11453976 204.10717944 89.7924242 204.12841034 C79.13911372 204.15598706 68.48646901 204.20674407 57.83343583 204.28888464 C50.34804009 204.3446502 42.86282509 204.37364276 35.37722892 204.38288355 C30.90429092 204.38914611 26.43213261 204.40731076 21.95942116 204.45426941 C17.74929047 204.49792169 13.54036609 204.50842945 9.33004761 204.4936409 C7.78607303 204.49396973 6.24204688 204.50626052 4.69827843 204.53149033 C-8.38172959 204.73394423 -8.38172959 204.73394423 -12.37770081 201.26000977 C-16.43241424 194.90505859 -15.29063275 185.90669461 -15.23730469 178.65039062 C-15.24543985 176.79865787 -15.25612572 174.94693482 -15.26916504 173.0952301 C-15.29648088 168.07649674 -15.28592859 163.05850474 -15.26689053 158.03975868 C-15.25168105 152.78328098 -15.26579304 147.52686599 -15.27520752 142.27038574 C-15.28611798 133.44365055 -15.271752 124.61721675 -15.24316406 115.79052734 C-15.21051141 105.59116637 -15.22108879 95.39252505 -15.2541225 85.19318151 C-15.28136588 76.43030822 -15.28518504 67.66765136 -15.26949048 58.90474939 C-15.26014475 53.67363854 -15.25886585 48.44286576 -15.27870941 43.21177673 C-15.29606468 38.29323135 -15.28397854 33.37561217 -15.24934387 28.45716667 C-15.2414223 26.65405247 -15.24366863 24.85086008 -15.25691986 23.04777718 C-15.35908251 7.73252892 -15.35908251 7.73252892 -11.66152954 3.10618591 C-8.18848039 -0.18838603 -4.58826583 -0.21913021 0 0 Z " fill="#5AB0A5" transform="translate(76.4609375,61.31640625)"/>
<path d="M0 0 C3.88383075 1.97722293 6.99050561 4.08677409 9 8 C9.23520538 9.54213069 9.4224435 11.09196792 9.57421875 12.64453125 C9.65631592 13.45897705 9.73841309 14.27342285 9.82299805 15.11254883 C9.88140869 15.73540771 9.93981934 16.3582666 10 17 C10.6612085 17.02505615 11.32241699 17.0501123 12.00366211 17.07592773 C14.98182305 17.19153102 17.9596392 17.31441754 20.9375 17.4375 C21.97841797 17.47681641 23.01933594 17.51613281 24.09179688 17.55664062 C25.57583008 17.61948242 25.57583008 17.61948242 27.08984375 17.68359375 C28.46450806 17.73858032 28.46450806 17.73858032 29.86694336 17.79467773 C32 18 32 18 33 19 C33.0991657 20.62257544 33.13079777 22.24939831 33.1328125 23.875 C33.13410156 24.85984375 33.13539063 25.8446875 33.13671875 26.859375 C33.13285156 27.89578125 33.12898438 28.9321875 33.125 30 C33.12886719 31.03640625 33.13273437 32.0728125 33.13671875 33.140625 C33.13542969 34.12546875 33.13414062 35.1103125 33.1328125 36.125 C33.13168457 37.03507812 33.13055664 37.94515625 33.12939453 38.8828125 C33 41 33 41 32 42 C29.66285675 42.10023555 27.35525675 42.13619203 25.01757812 42.12939453 C23.92249184 42.13202301 23.92249184 42.13202301 22.80528259 42.13470459 C20.38058122 42.13912299 17.95595218 42.13618517 15.53125 42.1328125 C13.85355617 42.13348554 12.17586244 42.13445557 10.49816895 42.13571167 C6.97744826 42.13718863 3.4567529 42.13503416 -0.06396484 42.13037109 C-4.58710496 42.1246738 -9.11018574 42.12795282 -13.63332367 42.13394356 C-17.09902395 42.13754923 -20.56471007 42.13641056 -24.03041077 42.13381577 C-25.69865425 42.13314651 -27.36689899 42.13397486 -29.03514099 42.13629532 C-31.36265494 42.13882195 -33.69007148 42.13498113 -36.01757812 42.12939453 C-36.71371719 42.13141876 -37.40985626 42.13344299 -38.12709045 42.13552856 C-42.88573726 42.11426274 -42.88573726 42.11426274 -44 41 C-44.0991657 39.37742456 -44.13079777 37.75060169 -44.1328125 36.125 C-44.13410156 35.14015625 -44.13539062 34.1553125 -44.13671875 33.140625 C-44.13285156 32.10421875 -44.12898438 31.0678125 -44.125 30 C-44.13080078 28.44539063 -44.13080078 28.44539063 -44.13671875 26.859375 C-44.13542969 25.87453125 -44.13414063 24.8896875 -44.1328125 23.875 C-44.13168457 22.96492188 -44.13055664 22.05484375 -44.12939453 21.1171875 C-44 19 -44 19 -43 18 C-41.29227642 17.91286169 -39.58101351 17.89299993 -37.87109375 17.90234375 C-36.31938477 17.90717773 -36.31938477 17.90717773 -34.73632812 17.91210938 C-33.64771484 17.92048828 -32.55910156 17.92886719 -31.4375 17.9375 C-29.7987793 17.94426758 -29.7987793 17.94426758 -28.12695312 17.95117188 C-25.41791505 17.96300174 -22.70898401 17.97948457 -20 18 C-20.0319043 17.39599365 -20.06380859 16.7919873 -20.09667969 16.16967773 C-20.300513 9.60002428 -20.300513 9.60002428 -18.828125 6.66015625 C-18.30734375 6.13292969 -17.7865625 5.60570312 -17.25 5.0625 C-16.73953125 4.51722656 -16.2290625 3.97195312 -15.703125 3.41015625 C-10.88935478 -0.57555717 -6.04828444 -0.78350604 0 0 Z " fill="#CF9E69" transform="translate(154,38)"/>
<path d="M0 0 C4.26029191 0.57999024 7.35161535 3.12387893 10.75 5.5625 C11.35199219 5.98724609 11.95398438 6.41199219 12.57421875 6.84960938 C14.05329714 7.89435522 15.52717259 8.94646016 17 10 C16.35686097 13.91330771 14.46166057 16.62868785 12.2890625 19.90234375 C11.9202597 20.46192276 11.55145691 21.02150177 11.17147827 21.59803772 C9.99462356 23.3814348 8.81011624 25.15958476 7.625 26.9375 C6.44865358 28.71287599 5.2739133 30.48930128 4.09994507 32.26625061 C3.03111647 33.88235626 1.95829136 35.49581667 0.88525391 37.10913086 C-1.02963316 39.9427176 -1.02963316 39.9427176 -2.49853516 42.87719727 C-2.99401855 43.57772217 -3.48950195 44.27824707 -4 45 C-5.32 45 -6.64 45 -8 45 C-8.08668945 46.02383789 -8.17337891 47.04767578 -8.26269531 48.10253906 C-9.07192566 52.38020569 -10.38645682 54.75965627 -12.796875 58.359375 C-13.3753141 59.23409203 -13.3753141 59.23409203 -13.96543884 60.1264801 C-15.21497581 62.00930487 -16.48199342 63.87957594 -17.75 65.75 C-18.61403997 67.04384582 -19.47707155 68.3383656 -20.33911133 69.63354492 C-22.87507448 73.43441084 -25.43465551 77.21892506 -28 81 C-28.71655762 82.05848145 -29.43311523 83.11696289 -30.17138672 84.20751953 C-33.75381958 89.49065875 -37.361864 94.75507503 -41 100 C-44.63487252 98.23742974 -47.89761457 96.13421627 -51.25 93.875 C-52.32765625 93.15054688 -53.4053125 92.42609375 -54.515625 91.6796875 C-55.33546875 91.12539062 -56.1553125 90.57109375 -57 90 C-51.66649138 79.59030116 -45.33604415 69.81774063 -39 60 C-38.07550049 58.55826416 -38.07550049 58.55826416 -37.13232422 57.08740234 C-35.24624999 54.15430957 -33.34440875 51.2320808 -31.4375 48.3125 C-30.84195313 47.38518066 -30.24640625 46.45786133 -29.6328125 45.50244141 C-29.07207031 44.65214355 -28.51132813 43.8018457 -27.93359375 42.92578125 C-27.43915771 42.16692627 -26.94472168 41.40807129 -26.43530273 40.6262207 C-25.96165283 40.08956787 -25.48800293 39.55291504 -25 39 C-24.01 39 -23.02 39 -22 39 C-22.05736328 38.10812988 -22.11472656 37.21625977 -22.17382812 36.29736328 C-21.98042076 32.62859933 -21.28492113 31.2202338 -19.21875 28.2421875 C-18.62723145 27.37424561 -18.03571289 26.50630371 -17.42626953 25.61206055 C-16.79060059 24.70883057 -16.15493164 23.80560059 -15.5 22.875 C-14.86304199 21.9466333 -14.22608398 21.0182666 -13.56982422 20.06176758 C-12.30270437 18.21518594 -11.03050987 16.37207487 -9.75292969 14.53271484 C-7.50056326 11.27839043 -5.30941168 7.98777542 -3.125 4.6875 C-2.08333333 3.125 -1.04166667 1.5625 0 0 Z " fill="#6CAE5E" transform="translate(250,110)"/>
<path d="M0 0 C0.33 0 0.66 0 1 0 C1.11589171 9.95307411 1.20471419 19.9059875 1.25906086 29.85959911 C1.28514583 34.48159315 1.3205234 39.10312531 1.37719727 43.72485352 C1.43155689 48.18581488 1.46142882 52.64633223 1.47438622 57.10759926 C1.48361907 58.80889183 1.50164913 60.51016031 1.52865028 62.21126366 C1.56499504 64.59604615 1.56994337 66.97899842 1.56762695 69.36401367 C1.58560333 70.06604416 1.60357971 70.76807465 1.62210083 71.49137878 C1.58095607 75.41089196 1.10269723 76.87895694 -1.47297668 79.91474915 C-2.30689438 80.60288193 -3.14081207 81.29101471 -4 82 C-4.33 82.33 -4.66 82.66 -5 83 C-7.64738089 83.09511266 -10.26859001 83.12555635 -12.91625977 83.11352539 C-13.74545929 83.11367142 -14.57465881 83.11381744 -15.4289856 83.1139679 C-18.18315198 83.11326851 -20.93725161 83.10547493 -23.69140625 83.09765625 C-25.59569766 83.09579216 -27.49998955 83.09436822 -29.40428162 83.09336853 C-34.42667963 83.08954263 -39.44904892 83.07971173 -44.47143555 83.06866455 C-49.5922812 83.05845198 -54.71313148 83.05387124 -59.83398438 83.04882812 C-69.88933557 83.03808953 -79.9446654 83.02101224 -90 83 C-89.34 82.01 -88.68 81.02 -88 80 C-87.29835358 78.01200182 -86.62627128 76.01301483 -86 74 C-85.17616318 73.99635437 -84.35232635 73.99270874 -83.50352478 73.98895264 C-75.72060248 73.95100727 -67.93815539 73.89408098 -60.15553951 73.81609726 C-56.15486504 73.77667191 -52.15440903 73.74445948 -48.15356445 73.72900391 C-44.28886503 73.71380432 -40.4247664 73.67930146 -36.56033516 73.63169098 C-35.08968912 73.61691096 -33.61895729 73.60896093 -32.14823723 73.60811615 C-21.33718 73.79645913 -21.33718 73.79645913 -12 69 C-10.0744366 65.94888611 -9.76616434 63.66198587 -9.82397461 60.08642578 C-9.83774391 58.62307297 -9.83774391 58.62307297 -9.85179138 57.13015747 C-9.86847366 56.07915863 -9.88515594 55.02815979 -9.90234375 53.9453125 C-9.90641223 51.6979195 -9.90829311 49.45052168 -9.90820312 47.203125 C-9.91626257 43.6765054 -9.9370438 40.15212976 -9.99633789 36.62597656 C-10.213445 22.30700528 -10.27593476 10.8348252 0 0 Z " fill="#AD8862" transform="translate(234,182)"/>
<path d="M0 0 C4.19047619 0.19047619 4.19047619 0.19047619 6 2 C6.4375 4.6875 6.4375 4.6875 6 8 C5.01515625 8.82757813 4.0303125 9.65515625 3.015625 10.5078125 C0.07637865 13.30707404 -0.46813549 15.26396005 -0.69921875 19.29296875 C-0.72428864 21.25765644 -0.71962206 23.22291496 -0.6875 25.1875 C-0.67857403 27.16013992 -0.68192705 29.13288442 -0.69921875 31.10546875 C-0.68721436 31.97324951 -0.67520996 32.84103027 -0.6628418 33.73510742 C-1 36 -1 36 -2.13793945 37.78100586 C-4.81986413 39.53672238 -6.90610082 39.38859908 -10.09375 39.3984375 C-11.28871094 39.40230469 -12.48367187 39.40617187 -13.71484375 39.41015625 C-14.96394531 39.39855469 -16.21304688 39.38695312 -17.5 39.375 C-18.74910156 39.38660156 -19.99820313 39.39820313 -21.28515625 39.41015625 C-23.07759766 39.40435547 -23.07759766 39.40435547 -24.90625 39.3984375 C-26.00259766 39.39505371 -27.09894531 39.39166992 -28.22851562 39.38818359 C-31 39 -31 39 -32.8581543 37.88330078 C-34.56401204 35.06974794 -34.37153972 32.73821045 -34.36328125 29.46875 C-34.36263672 28.18355469 -34.36199219 26.89835937 -34.36132812 25.57421875 C-34.35302979 24.90567871 -34.34473145 24.23713867 -34.33618164 23.54833984 C-34.31258192 21.50708548 -34.31562347 19.46713745 -34.32226562 17.42578125 C-34.26696034 7.4004405 -34.26696034 7.4004405 -32 4 C-29.72509766 3.64355469 -29.72509766 3.64355469 -26.9140625 3.671875 C-25.90085937 3.67703125 -24.88765625 3.6821875 -23.84375 3.6875 C-22.25046875 3.7184375 -22.25046875 3.7184375 -20.625 3.75 C-19.57054688 3.75515625 -18.51609375 3.7603125 -17.4296875 3.765625 C-9.50199869 3.84610915 -9.50199869 3.84610915 -6.81787109 4.66894531 C-6.21797363 4.77819336 -5.61807617 4.88744141 -5 5 C-4.195625 4.175 -3.39125 3.35 -2.5625 2.5 C-1.716875 1.675 -0.87125 0.85 0 0 Z " fill="#1B1E1D" transform="translate(126,96)"/>
<path d="M0 0 C2.5 0.25 2.5 0.25 4.5 2.25 C5 4.5 5 4.5 4.5 7.25 C3.51386719 8.06597656 2.52773437 8.88195312 1.51171875 9.72265625 C-1.41335209 12.53858912 -1.96755005 14.51305996 -2.19921875 18.54296875 C-2.22428864 20.50765644 -2.21962206 22.47291496 -2.1875 24.4375 C-2.17857403 26.41013992 -2.18192705 28.38288442 -2.19921875 30.35546875 C-2.18721436 31.22324951 -2.17520996 32.09103027 -2.1628418 32.98510742 C-2.5 35.25 -2.5 35.25 -3.62207031 37.03100586 C-6.37497002 38.81795701 -8.58641601 38.63879633 -11.84765625 38.6484375 C-13.09224609 38.65230469 -14.33683594 38.65617187 -15.61914062 38.66015625 C-16.92044922 38.64855469 -18.22175781 38.63695312 -19.5625 38.625 C-20.86767578 38.63660156 -22.17285156 38.64820313 -23.51757812 38.66015625 C-24.76087891 38.65628906 -26.00417969 38.65242188 -27.28515625 38.6484375 C-28.42863525 38.64505371 -29.57211426 38.64166992 -30.75024414 38.63818359 C-31.65766357 38.51008301 -32.56508301 38.38198242 -33.5 38.25 C-36.66605486 33.50091772 -35.83385215 28.38514404 -35.81567383 22.79833984 C-35.81251076 20.75694546 -35.83599127 18.71699681 -35.86132812 16.67578125 C-35.86197266 15.39058594 -35.86261719 14.10539063 -35.86328125 12.78125 C-35.86626221 11.60111328 -35.86924316 10.42097656 -35.87231445 9.20507812 C-35.5 6.25 -35.5 6.25 -34.28759766 4.36669922 C-31.92595711 2.89139959 -30.31291487 2.86223739 -27.53515625 2.8515625 C-26.08786133 2.84576172 -26.08786133 2.84576172 -24.61132812 2.83984375 C-23.1021582 2.85724609 -23.1021582 2.85724609 -21.5625 2.875 C-20.56025391 2.86339844 -19.55800781 2.85179687 -18.52539062 2.83984375 C-17.55923828 2.84371094 -16.59308594 2.84757813 -15.59765625 2.8515625 C-14.27519897 2.85663818 -14.27519897 2.85663818 -12.92602539 2.86181641 C-10.05815232 3.32069919 -8.65932963 4.35560918 -6.5 6.25 C-6.066875 5.321875 -6.066875 5.321875 -5.625 4.375 C-4.09289557 1.48102496 -3.33783515 0.33378352 0 0 Z " fill="#1E2220" transform="translate(127.5,145.75)"/>
<path d="M0 0 C2.25 0.875 2.25 0.875 3.25 1.875 C3.6875 4.0625 3.6875 4.0625 3.25 6.875 C2.26515625 7.69226563 1.2803125 8.50953125 0.265625 9.3515625 C-2.66368154 12.16562048 -3.21781124 14.13612431 -3.44921875 18.16796875 C-3.47428864 20.13265644 -3.46962206 22.09791496 -3.4375 24.0625 C-3.42857403 26.03513992 -3.43192705 28.00788442 -3.44921875 29.98046875 C-3.43721436 30.84824951 -3.42520996 31.71603027 -3.4128418 32.61010742 C-3.75 34.875 -3.75 34.875 -4.87207031 36.65600586 C-7.62497002 38.44295701 -9.83641601 38.26379633 -13.09765625 38.2734375 C-14.34224609 38.27730469 -15.58683594 38.28117187 -16.86914062 38.28515625 C-18.17044922 38.27355469 -19.47175781 38.26195312 -20.8125 38.25 C-22.11767578 38.26160156 -23.42285156 38.27320313 -24.76757812 38.28515625 C-26.01087891 38.28128906 -27.25417969 38.27742188 -28.53515625 38.2734375 C-29.67863525 38.27005371 -30.82211426 38.26666992 -32.00024414 38.26318359 C-32.90766357 38.13508301 -33.81508301 38.00698242 -34.75 37.875 C-37.91605486 33.12591772 -37.08385215 28.01014404 -37.06567383 22.42333984 C-37.06251076 20.38194546 -37.08599127 18.34199681 -37.11132812 16.30078125 C-37.11197266 15.01558594 -37.11261719 13.73039063 -37.11328125 12.40625 C-37.11626221 11.22611328 -37.11924316 10.04597656 -37.12231445 8.83007812 C-36.75 5.875 -36.75 5.875 -35.53759766 3.98950195 C-33.17078835 2.51388266 -31.56695275 2.50230101 -28.78515625 2.51171875 C-27.82029297 2.51236328 -26.85542969 2.51300781 -25.86132812 2.51367188 C-24.3521582 2.5378418 -24.3521582 2.5378418 -22.8125 2.5625 C-21.30913086 2.55766602 -21.30913086 2.55766602 -19.77539062 2.55273438 C-11.62699347 2.61252915 -11.62699347 2.61252915 -7.75 4.875 C-6.6671875 3.6065625 -6.6671875 3.6065625 -5.5625 2.3125 C-2.75 -0.125 -2.75 -0.125 0 0 Z " fill="#1A1D1C" transform="translate(128.75,195.125)"/>
<path d="M0 0 C4.75053511 -0.07435222 9.50072887 -0.12869691 14.25170898 -0.16479492 C15.86667789 -0.17984876 17.48160613 -0.20029648 19.09643555 -0.22631836 C21.42246555 -0.26285286 23.74795341 -0.27976015 26.07421875 -0.29296875 C27.15107185 -0.31619453 27.15107185 -0.31619453 28.24967957 -0.33988953 C32.69377329 -0.3413697 35.48338101 0.24370927 39 3 C41.21327916 6.31991875 41.27065673 7.44512133 41.33813477 11.32250977 C41.36057755 12.41116837 41.38302032 13.49982697 41.40614319 14.62147522 C41.4235984 16.38859108 41.4235984 16.38859108 41.44140625 18.19140625 C41.45517807 19.40642319 41.46894989 20.62144012 41.48313904 21.87327576 C41.50643796 24.44973179 41.5236896 27.02624844 41.53540039 29.6027832 C41.56223267 33.52343835 41.63710304 37.441357 41.71289062 41.36132812 C41.72955635 43.86716938 41.74331987 46.37303194 41.75390625 48.87890625 C41.78376114 50.04281387 41.81361603 51.2067215 41.84437561 52.40589905 C41.79465252 61.72456457 38.70340321 67.17287878 32.2724762 73.77296448 C31.85255905 74.1778862 31.43264191 74.58280792 31 75 C30.99635437 74.27194656 30.99270874 73.54389313 30.98895264 72.79377747 C30.95103963 65.92264869 30.89414943 59.05190892 30.81609726 52.18112659 C30.77663716 48.64897147 30.74444196 45.11706508 30.72900391 41.5847168 C30.71092159 37.52091652 30.66096481 33.45804529 30.609375 29.39453125 C30.60814636 28.1297847 30.60691772 26.86503815 30.60565186 25.56196594 C30.58593323 24.38111923 30.5662146 23.20027252 30.54589844 21.98364258 C30.53701599 20.94661697 30.52813354 19.90959137 30.51898193 18.84114075 C29.86711948 15.27255219 28.48905126 13.59309722 26 11 C22.62283064 9.21362215 19.70804523 8.72544952 15.91796875 8.5859375 C14.98662109 8.54726562 14.05527344 8.50859375 13.09570312 8.46875 C12.13599609 8.4378125 11.17628906 8.406875 10.1875 8.375 C9.20845703 8.33632812 8.22941406 8.29765625 7.22070312 8.2578125 C4.81398626 8.16389184 2.40726988 8.07821799 0 8 C0 5.36 0 2.72 0 0 Z " fill="#55ABA0" transform="translate(194,62)"/>
<path d="M0 0 C4.26029191 0.57999024 7.35161535 3.12387893 10.75 5.5625 C11.35199219 5.98724609 11.95398438 6.41199219 12.57421875 6.84960938 C14.05329714 7.89435522 15.52717259 8.94646016 17 10 C16.27633685 13.34430737 15.18284504 15.34262343 13 18 C10.69 17.34 8.38 16.68 6 16 C1.6549009 21.56497987 -1.42641534 26.07171015 -2.5390625 33.09375 C-3.2120131 35.87679994 -4.85560564 37.2014757 -7 39 C-7.33 39.99 -7.66 40.98 -8 42 C-11.49844386 41.36610765 -13.84086876 39.94822306 -16.75 37.9375 C-17.54921875 37.38964844 -18.3484375 36.84179688 -19.171875 36.27734375 C-19.77515625 35.85582031 -20.3784375 35.43429688 -21 35 C-20.44730103 31.42085664 -19.60291704 28.97867402 -17.55859375 25.99609375 C-17.06069336 25.26052246 -16.56279297 24.52495117 -16.04980469 23.76708984 C-15.51774414 22.9983252 -14.98568359 22.22956055 -14.4375 21.4375 C-13.34762962 19.83465352 -12.25778597 18.23178887 -11.16796875 16.62890625 C-10.63091309 15.84531738 -10.09385742 15.06172852 -9.54052734 14.25439453 C-7.41627657 11.14578413 -5.33244988 8.01176023 -3.25 4.875 C-2.61578125 3.92367187 -1.9815625 2.97234375 -1.328125 1.9921875 C-0.88984375 1.33476563 -0.4515625 0.67734375 0 0 Z " fill="#76B86C" transform="translate(250,110)"/>
<path d="M0 0 C1.70209877 0.00333092 1.70209877 0.00333092 3.43858337 0.00672913 C4.71983597 0.00680466 6.00108856 0.00688019 7.32116699 0.00695801 C8.73001646 0.01206542 10.13886554 0.01728143 11.54771423 0.02259827 C12.98118033 0.02446249 14.41464706 0.02588637 15.84811401 0.02688599 C19.62765755 0.03071079 23.40716288 0.04054075 27.18669128 0.05158997 C31.04075097 0.06180489 34.8948168 0.06638378 38.74888611 0.07142639 C46.31596085 0.08216306 53.88300407 0.09923903 61.45005798 0.12025452 C62.07505798 1.99525452 62.07505798 1.99525452 62.45005798 4.12025452 C60.45005798 6.12025452 60.45005798 6.12025452 57.81782532 6.36076355 C56.70307831 6.35632233 55.5883313 6.3518811 54.43980408 6.3473053 C52.54806961 6.3470787 52.54806961 6.3470787 50.61811829 6.34684753 C49.23657576 6.33663349 47.85503483 6.32620149 46.47349548 6.31556702 C45.06388041 6.3118374 43.65426275 6.30899018 42.24464417 6.30699158 C38.53246416 6.29935107 34.82044038 6.27969913 31.10832214 6.25758362 C27.32121392 6.2371341 23.53408049 6.22799178 19.74693298 6.21791077 C12.31457006 6.19645351 4.8823359 6.16231268 -2.54994202 6.12025452 C-2.93212969 4.46410794 -3.26389303 2.79568427 -3.54994202 1.12025452 C-2.54994202 0.12025452 -2.54994202 0.12025452 0 0 Z " fill="#212121" transform="translate(141.54994201660156,109.87974548339844)"/>
<path d="M0 0 C1.04590805 0.00222061 2.0918161 0.00444122 3.16941833 0.00672913 C4.35056717 0.00680466 5.531716 0.00688019 6.74865723 0.00695801 C8.03404892 0.01211929 9.31944061 0.01728058 10.64378357 0.02259827 C12.60601112 0.02472069 12.60601112 0.02472069 14.60787964 0.02688599 C18.09150591 0.03071042 21.57509071 0.04054005 25.05870056 0.05158997 C28.6111444 0.06180569 32.16359491 0.06638395 35.71604919 0.07142639 C42.69067564 0.0821624 49.66527449 0.09923792 56.63987732 0.12025452 C57.02206499 1.77640109 57.35382834 3.44482476 57.63987732 5.12025452 C56.63987732 6.12025452 56.63987732 6.12025452 54.27975464 6.24050903 C53.23384659 6.23828842 52.18793854 6.23606781 51.1103363 6.23377991 C49.92918747 6.23370438 48.74803864 6.23362885 47.53109741 6.23355103 C46.24570572 6.22838974 44.96031403 6.22322845 43.63597107 6.21791077 C42.32781937 6.21649582 41.01966766 6.21508087 39.671875 6.21362305 C36.18824873 6.20979861 32.70466393 6.19996898 29.22105408 6.18891907 C25.66861024 6.17870334 22.11615973 6.17412508 18.56370544 6.16908264 C11.589079 6.15834664 4.61448015 6.14127111 -2.36012268 6.12025452 C-2.74231035 4.46410794 -3.0740737 2.79568427 -3.36012268 1.12025452 C-2.36012268 0.12025452 -2.36012268 0.12025452 0 0 Z " fill="#202020" transform="translate(141.36012268066406,158.87974548339844)"/>
<path d="M0 0 C3.17074598 1.55312812 5.6417381 3.36963096 8 6 C8.875 8.8125 8.875 8.8125 8 12 C6.18979192 15.14976206 4.17249156 18.09041309 2 21 C-1.76818431 20.34815769 -4.43980354 18.62729717 -7.625 16.5625 C-9.06746094 15.63630859 -9.06746094 15.63630859 -10.5390625 14.69140625 C-13 13 -13 13 -15 11 C-14.71725185 7.04152585 -12.28239763 4.1123604 -10 1 C-6.71597594 -0.64201203 -3.53491762 -0.64663127 0 0 Z " fill="#609CC1" transform="translate(270,94)"/>
<path d="M0 0 C6.27 0 12.54 0 19 0 C19 4 19 4 17.6875 5.703125 C17.130625 6.21359375 16.57375 6.7240625 16 7.25 C15.443125 7.77078125 14.88625 8.2915625 14.3125 8.828125 C13.6628125 9.40820312 13.6628125 9.40820312 13 10 C12.2575 9.690625 11.515 9.38125 10.75 9.0625 C8.49307824 8.1905075 6.3549847 7.52332993 4 7 C3.67 8.65 3.34 10.3 3 12 C7.27366425 16.20681925 7.27366425 16.20681925 12.5625 18.8125 C16.03093257 17.65635581 17.57315255 15.37920391 19.765625 12.53125 C20.17296875 12.0259375 20.5803125 11.520625 21 11 C21.33 11 21.66 11 22 11 C22 14.96 22 18.92 22 23 C14.74 23 7.48 23 0 23 C0 15.41 0 7.82 0 0 Z " fill="#90D4B2" transform="translate(97,204)"/>
<path d="M0 0 C6.27 0 12.54 0 19 0 C17.80655062 4.77379752 16.20354235 6.38574709 13 10 C12.443125 9.690625 11.88625 9.38125 11.3125 9.0625 C8.87459567 7.94238179 6.63775814 7.43962636 4 7 C3.52085375 9.7151621 3.58877162 11.39631121 5.16015625 13.703125 C8.26113059 17.09869153 8.26113059 17.09869153 12.5625 18.25 C16.00440224 16.48492193 17.61162099 14.03388685 20 11 C20.66 11 21.32 11 22 11 C22 14.96 22 18.92 22 23 C14.74 23 7.48 23 0 23 C0 15.41 0 7.82 0 0 Z " fill="#9BE2BE" transform="translate(97,106)"/>
<path d="M0 0 C5.61 0 11.22 0 17 0 C17.33 1.32 17.66 2.64 18 4 C16.92578125 5.73828125 16.92578125 5.73828125 15.3125 7.3125 C14.79300781 7.84488281 14.27351563 8.37726563 13.73828125 8.92578125 C12 10 12 10 9.91796875 9.79296875 C8 9 8 9 6 7 C3.89179203 7.3185177 3.89179203 7.3185177 2 8 C2.29802105 11.47691229 3.0117623 13.01512296 5.1875 15.8125 C7.82346747 18.16331095 7.82346747 18.16331095 10.9375 18.75 C14.98678547 17.75833825 16.3447016 15.78023726 18.80078125 12.53125 C19.19652344 12.0259375 19.59226562 11.520625 20 11 C20.33 11 20.66 11 21 11 C21 14.96 21 18.92 21 23 C14.07 23 7.14 23 0 23 C0 15.41 0 7.82 0 0 Z " fill="#92D8B5" transform="translate(98,155)"/>
<path d="M0 0 C1.08946678 -0.0049926 1.08946678 -0.0049926 2.20094299 -0.01008606 C3.74015671 -0.015158 5.27938145 -0.0174943 6.81860352 -0.01733398 C9.17808096 -0.01951891 11.53708986 -0.0376669 13.89648438 -0.05664062 C15.38932131 -0.05957477 16.88216048 -0.06155942 18.375 -0.0625 C19.43756264 -0.07327827 19.43756264 -0.07327827 20.52159119 -0.08427429 C25.52508288 -0.06085462 25.52508288 -0.06085462 27.75390625 2.16796875 C27.42390625 3.48796875 27.09390625 4.80796875 26.75390625 6.16796875 C15.53390625 6.16796875 4.31390625 6.16796875 -7.24609375 6.16796875 C-7.57609375 4.51796875 -7.90609375 2.86796875 -8.24609375 1.16796875 C-6.30565633 -0.77246867 -2.6473564 0.00414702 0 0 Z " fill="#262526" transform="translate(146.24609375,121.83203125)"/>
<path d="M0 0 C1.43352212 0.00015908 2.86704998 0.00585132 4.30053711 0.01586914 C5.43041298 0.01799156 5.43041298 0.01799156 6.58311462 0.02015686 C8.99807646 0.02577163 11.41294687 0.03832656 13.82788086 0.05102539 C15.46134307 0.05603849 17.09480672 0.06060173 18.72827148 0.06469727 C22.74067671 0.07574585 26.75301326 0.09302033 30.76538086 0.11352539 C30.80810186 1.77964444 30.80601918 3.44735424 30.76538086 5.11352539 C29.76538086 6.11352539 29.76538086 6.11352539 26.62255859 6.22705078 C25.23135388 6.22689172 23.84014325 6.22120046 22.44897461 6.21118164 C21.71792007 6.20976669 20.98686554 6.20835175 20.23365784 6.20689392 C17.89002454 6.20127947 15.54648547 6.18872461 13.20288086 6.17602539 C11.61759578 6.17101225 10.0323092 6.16644902 8.44702148 6.16235352 C4.55310476 6.15130536 0.6592588 6.13403111 -3.23461914 6.11352539 C-3.61680681 4.45737882 -3.94857016 2.78895515 -4.23461914 1.11352539 C-3.23461914 0.11352539 -3.23461914 0.11352539 0 0 Z " fill="#1F1F1F" transform="translate(142.234619140625,171.886474609375)"/>
<path d="M0 0 C2.91517292 1.07401108 4.77810176 1.77810176 7 4 C6.5875 4.57105469 6.175 5.14210937 5.75 5.73046875 C0.83243122 12.63482313 -3.62259374 19.74601248 -8 27 C-9.98 26.67 -11.96 26.34 -14 26 C-12.84826645 23.53199953 -11.95216435 21.95216435 -10 20 C-9.57856505 18.13359099 -9.57856505 18.13359099 -9.3125 16 C-8.09631603 9.85926782 -4.41321889 4.41321889 0 0 Z " fill="#60A55D" transform="translate(256,125)"/>
<path d="M0 0 C4.22703482 0.55598836 6.85684559 1.97502626 10.3125 4.4375 C11.19550781 5.05496094 12.07851562 5.67242187 12.98828125 6.30859375 C13.65214844 6.86675781 14.31601563 7.42492187 15 8 C15 8.66 15 9.32 15 10 C12.8046875 11.76171875 12.8046875 11.76171875 9.875 13.6875 C8.92367187 14.33074219 7.97234375 14.97398437 6.9921875 15.63671875 C3.46103466 17.24555993 1.68941709 16.99077818 -2 16 C-1.50130596 10.63108121 -0.97772468 5.30764827 0 0 Z " fill="#EDCAA1" transform="translate(189,206)"/>
<path d="M0 0 C1.12591553 0.00523682 2.25183105 0.01047363 3.41186523 0.01586914 C4.62680664 0.0190918 5.84174805 0.02231445 7.09350586 0.02563477 C8.37290039 0.03401367 9.65229492 0.04239258 10.97045898 0.05102539 C12.2537207 0.05553711 13.53698242 0.06004883 14.85913086 0.06469727 C18.04211921 0.07652994 21.22501661 0.09301471 24.40795898 0.11352539 C24.73795898 1.76352539 25.06795898 3.41352539 25.40795898 5.11352539 C22.69394604 6.47053186 20.55949582 6.22591149 17.52514648 6.21118164 C16.35854492 6.20795898 15.19194336 6.20473633 13.98999023 6.20141602 C12.76666992 6.19303711 11.54334961 6.1846582 10.28295898 6.17602539 C9.0519043 6.17151367 7.82084961 6.16700195 6.55249023 6.16235352 C3.50426507 6.15053869 0.45613585 6.13406567 -2.59204102 6.11352539 C-2.97422869 4.45737882 -3.30599203 2.78895515 -3.59204102 1.11352539 C-2.59204102 0.11352539 -2.59204102 0.11352539 0 0 Z " fill="#202020" transform="translate(141.592041015625,220.886474609375)"/>
<path d="M0 0 C0.99 1.485 0.99 1.485 2 3 C0 5 0 5 -2.35444069 5.24609566 C-3.34813353 5.24425207 -4.34182636 5.24240849 -5.3656311 5.24050903 C-6.50429123 5.24325836 -7.64295135 5.24600769 -8.81611633 5.24884033 C-10.07127548 5.24164978 -11.32643463 5.23445923 -12.61962891 5.22705078 C-14.59516502 5.22748886 -14.59516502 5.22748886 -16.61061096 5.22793579 C-20.22819996 5.22851103 -23.84565708 5.21672924 -27.46321535 5.20278788 C-31.24153257 5.19030886 -35.01985261 5.18911226 -38.79818726 5.18673706 C-45.95571689 5.18051395 -53.11318563 5.16409193 -60.27068841 5.14403808 C-68.41809238 5.12170489 -76.56549921 5.11069215 -84.71292615 5.10064721 C-101.47531978 5.07972639 -118.23765213 5.04453433 -135 5 C-135 4.67 -135 4.34 -135 4 C-133.97459579 3.99641747 -133.97459579 3.99641747 -132.92847633 3.99276257 C-116.31237017 3.93368513 -99.69642871 3.85818205 -83.08048439 3.76428509 C-75.04520604 3.71927577 -67.00997251 3.67987312 -58.97460938 3.65356445 C-51.97284185 3.63062578 -44.9712156 3.59727448 -37.96956003 3.55129844 C-34.26052446 3.52731009 -30.55162929 3.50861828 -26.84251785 3.50238609 C-22.70681975 3.49524238 -18.5716118 3.4648569 -14.43603516 3.43237305 C-13.19957748 3.43380814 -11.96311981 3.43524323 -10.68919373 3.4367218 C-9.56736191 3.42418365 -8.44553009 3.41164551 -7.28970337 3.39872742 C-6.31075922 3.39411845 -5.33181507 3.38950949 -4.32320595 3.38476086 C-3.55654799 3.25778977 -2.78989002 3.13081869 -2 3 C-1.34 2.01 -0.68 1.02 0 0 Z " fill="#EAEBEB" transform="translate(216,244)"/>
<path d="M0 0 C2.375 -0.125 2.375 -0.125 5 0 C5.66 0.66 6.32 1.32 7 2 C6.75847509 6.46821081 4.79077704 8.65106755 2 12 C1.31265496 13.17565194 0.64656099 14.36393437 0 15.5625 C-1.78441692 18.62946659 -3.25330078 20.78491998 -6 23 C-6.99 23 -7.98 23 -9 23 C-8.77731682 18.65767793 -7.52528561 16.08248735 -5.0625 12.625 C-2.10271649 8.44439452 -0.91231314 5.0177223 0 0 Z " fill="#8BCA89" transform="translate(242,122)"/>
<path d="M0 0 C0.66 0 1.32 0 2 0 C1.38601222 4.02503102 -0.79183844 6.92226975 -3.0625 10.1875 C-6.52410708 15.24083111 -9.87201501 20.35178535 -13.1171875 25.546875 C-13.83705903 26.69382852 -14.55703011 27.84071958 -15.27709961 28.98754883 C-16.35907345 30.71144443 -17.43730306 32.43718035 -18.50491333 34.17001343 C-19.51326511 35.80546178 -20.5356561 37.43222873 -21.55859375 39.05859375 C-22.14954834 40.01048584 -22.74050293 40.96237793 -23.34936523 41.94311523 C-24.16642944 42.96127319 -24.16642944 42.96127319 -25 44 C-25.99 44 -26.98 44 -28 44 C-23.59280529 32.17785684 -14.72140959 21.66356304 -7.59326172 11.34667969 C-6.48567656 9.71534218 -5.40024034 8.06883581 -4.33251953 6.41113281 C-3.80126465 5.58709961 -3.27000977 4.76306641 -2.72265625 3.9140625 C-2.24707275 3.16334473 -1.77148926 2.41262695 -1.28149414 1.63916016 C-0.85860107 1.0982373 -0.43570801 0.55731445 0 0 Z " fill="#2D6C82" transform="translate(277,118)"/>
<path d="M0 0 C6.27 0 12.54 0 19 0 C18.67 1.32 18.34 2.64 18 4 C17.34 3.34 16.68 2.68 16 2 C13.42314322 1.69309346 10.95896697 1.48985507 8.375 1.375 C5.94125 1.25125 3.5075 1.1275 1 1 C1 7.93 1 14.86 1 22 C7.435 21.505 7.435 21.505 14 21 C13.01 20.34 12.02 19.68 11 19 C11.7425 18.608125 12.485 18.21625 13.25 17.8125 C16.19561041 15.87107496 17.84099812 13.7545886 20 11 C20.66 11 21.32 11 22 11 C22 14.96 22 18.92 22 23 C14.74 23 7.48 23 0 23 C0 15.41 0 7.82 0 0 Z " fill="#8BD3AA" transform="translate(97,106)"/>
<path d="M0 0 C1.875 1.125 1.875 1.125 3 3 C3.54624158 6.66762206 3.47898298 8.3258758 1.3125 11.375 C-1 13 -1 13 -3.5625 13.4375 C-6 13 -6 13 -7.8125 11.9375 C-9.67036623 8.90624457 -9.37133265 6.46577141 -9 3 C-6.84332735 -0.71426957 -4.0099826 -0.50124783 0 0 Z " fill="#191715" transform="translate(152,46)"/>
<path d="M0 0 C3.38361519 0.61728115 5.52002561 1.86979718 8.25 3.9375 C8.95640625 4.46214844 9.6628125 4.98679687 10.390625 5.52734375 C11.18726563 6.25630859 11.18726563 6.25630859 12 7 C12 9 12 9 10.3125 11.1875 C8 13 8 13 5.625 13.0625 C2.0739517 11.62517092 -0.16439718 9.57182582 -3 7 C-2.38722388 4.03824877 -1.74627478 2.61941217 0 0 Z " fill="#9DCB85" transform="translate(250,110)"/>
<path d="M0 0 C0.54269531 0.40992188 1.08539063 0.81984375 1.64453125 1.2421875 C2.35996094 1.78101563 3.07539063 2.31984375 3.8125 2.875 C4.52019531 3.40867188 5.22789062 3.94234375 5.95703125 4.4921875 C10.33073443 7.72019787 12.56197684 8.20520842 18 8 C18.33 8.66 18.66 9.32 19 10 C18.67 10.66 18.34 11.32 18 12 C16.68 12 15.36 12 14 12 C13.34 13.32 12.68 14.64 12 16 C7 12.66666667 2 9.33333333 -3 6 C-2.01 6 -1.02 6 0 6 C0 4.02 0 2.04 0 0 Z " fill="#559248" transform="translate(228,143)"/>
<path d="M0 0 C0.66 0.33 1.32 0.66 2 1 C2.88229454 6.73491451 0.50103025 9.76938812 -2.6875 14.2421875 C-3.120625 14.82226562 -3.55375 15.40234375 -4 16 C-6.86724686 15.42655063 -7.8614515 15.1385485 -10 13 C-9.195625 12.21625 -8.39125 11.4325 -7.5625 10.625 C-5.01309583 8.28017144 -5.01309583 8.28017144 -4 6 C-3.34 6 -2.68 6 -2 6 C-1.34 4.02 -0.68 2.04 0 0 Z " fill="#4888AF" transform="translate(276,99)"/>
<path d="M0 0 C0.66 1.32 1.32 2.64 2 4 C5.40221369 8.06208888 8.76105028 11.57119553 14 13 C14 13.33 14 13.66 14 14 C12.04174127 14.02694851 10.08337774 14.04637218 8.125 14.0625 C7.03445312 14.07410156 5.94390625 14.08570313 4.8203125 14.09765625 C2 14 2 14 0 13 C0 8.71 0 4.42 0 0 Z " fill="#92D7B1" transform="translate(99,114)"/>
<path d="M0 0 C0.33 0 0.66 0 1 0 C1 3.96 1 7.92 1 12 C-5.4 12.49230769 -5.4 12.49230769 -8.4375 10 C-8.953125 9.34 -9.46875 8.68 -10 8 C-9.40574219 7.90847656 -8.81148438 7.81695312 -8.19921875 7.72265625 C-5.47467369 6.82737945 -4.56883941 5.67243061 -2.8125 3.4375 C-1.89134926 2.27848249 -0.95789331 1.12884042 0 0 Z " fill="#86D4AC" transform="translate(118,166)"/>
<path d="M0 0 C0.66 0 1.32 0 2 0 C1.39379553 2.975764 0.47939234 5.08863287 -1.21484375 7.6015625 C-1.65376953 8.25640625 -2.09269531 8.91125 -2.54492188 9.5859375 C-3.00447266 10.25882813 -3.46402344 10.93171875 -3.9375 11.625 C-4.39318359 12.305625 -4.84886719 12.98625 -5.31835938 13.6875 C-7.1024309 16.33095591 -8.7386906 18.7386906 -11 21 C-11.66 20.34 -12.32 19.68 -13 19 C-12.67725098 18.53102295 -12.35450195 18.0620459 -12.02197266 17.57885742 C-10.55609116 15.44855895 -9.09054217 13.31803193 -7.625 11.1875 C-7.11710937 10.44951172 -6.60921875 9.71152344 -6.0859375 8.95117188 C-5.59609375 8.23896484 -5.10625 7.52675781 -4.6015625 6.79296875 C-4.15119629 6.1383667 -3.70083008 5.48376465 -3.23681641 4.80932617 C-2.14632319 3.2140547 -1.07188784 1.60783176 0 0 Z " fill="#276175" transform="translate(277,118)"/>
<path d="M0 0 C7.26 0 14.52 0 22 0 C22 0.33 22 0.66 22 1 C16.72 1 11.44 1 6 1 C6.33 1.99 6.66 2.98 7 4 C3.375 7 3.375 7 0 7 C0 4.69 0 2.38 0 0 Z " fill="#E0AF7B" transform="translate(111,57)"/>
<path d="M0 0 C0.33 0 0.66 0 1 0 C1 12.87 1 25.74 1 39 C0.67 39 0.34 39 0 39 C-0.33 27.78 -0.66 16.56 -1 5 C-1.99 5.66 -2.98 6.32 -4 7 C-2.92598892 4.08482708 -2.22189824 2.22189824 0 0 Z " fill="#ECECEC" transform="translate(218,206)"/>
<path d="M0 0 C0.33 0.66 0.66 1.32 1 2 C-1.47952657 8.78607271 -4.28203444 14.64101722 -11 18 C-9.48103632 13.56829827 -7.07360191 9.96975924 -4.375 6.1875 C-3.95476562 5.59001953 -3.53453125 4.99253906 -3.1015625 4.37695312 C-2.07220272 2.91479435 -1.0367177 1.45695101 0 0 Z " fill="#6DB26B" transform="translate(241,124)"/>
<path d="M0 0 C6.27 0 12.54 0 19 0 C18.67 1.32 18.34 2.64 18 4 C17.34 3.34 16.68 2.68 16 2 C13.42314322 1.69309346 10.95896697 1.48985507 8.375 1.375 C5.94125 1.25125 3.5075 1.1275 1 1 C1 8.26 1 15.52 1 23 C0.67 23 0.34 23 0 23 C0 15.41 0 7.82 0 0 Z " fill="#71A488" transform="translate(97,106)"/>
<path d="M0 0 C1.11375 0.3403125 1.11375 0.3403125 2.25 0.6875 C2.25 3.6875 2.25 3.6875 0.82421875 5.29296875 C-0.10970703 6.07607422 -0.10970703 6.07607422 -1.0625 6.875 C-1.98482422 7.66970703 -1.98482422 7.66970703 -2.92578125 8.48046875 C-4.75 9.6875 -4.75 9.6875 -7.75 9.6875 C-5.875 5.8125 -5.875 5.8125 -4.75 4.6875 C-5.41 4.0275 -6.07 3.3675 -6.75 2.6875 C-4.29511132 0.41445492 -3.41240272 -0.38777304 0 0 Z " fill="#27312D" transform="translate(125.75,99.3125)"/>
<path d="M0 0 C1.32 0 2.64 0 4 0 C4 4 4 4 2 7 C1.70547416 9.38677076 1.5071783 11.78626094 1.375 14.1875 C1.30023438 15.45980469 1.22546875 16.73210937 1.1484375 18.04296875 C1.09945312 19.01878906 1.05046875 19.99460938 1 21 C1.66 21.33 2.32 21.66 3 22 C2.01 22 1.02 22 0 22 C0 14.74 0 7.48 0 0 Z " fill="#9DE9C5" transform="translate(98,156)"/>
<path d="M0 0 C-0.33 0.99 -0.66 1.98 -1 3 C-2.32 3 -3.64 3 -5 3 C-5.66 4.32 -6.32 5.64 -7 7 C-7.66 6.67 -8.32 6.34 -9 6 C-8.67 4.02 -8.34 2.04 -8 0 C-4.71023192 -1.09658936 -3.28696233 -0.79953138 0 0 Z " fill="#427E41" transform="translate(247,152)"/>
<path d="M0 0 C2 3 2 3 2.0625 4.9375 C0.32338592 8.31342733 -2.66775629 9.30358502 -6 11 C-6.33 10.01 -6.66 9.02 -7 8 C-6.401875 7.4225 -5.80375 6.845 -5.1875 6.25 C-3.2517316 4.25892393 -1.61090717 2.25527003 0 0 Z " fill="#2D413B" transform="translate(123,148)"/>
<path d="M0 0 C-0.93274109 1.12894876 -1.87140122 2.25300876 -2.8125 3.375 C-3.33457031 4.00148438 -3.85664063 4.62796875 -4.39453125 5.2734375 C-6 7 -6 7 -9 9 C-9.36337162 5.72965541 -9.28544288 4.39116247 -7.3125 1.6875 C-4.60883753 -0.28544288 -3.27034459 -0.36337162 0 0 Z " fill="#D6A975" transform="translate(144,41)"/>
<path d="M0 0 C1.65 0.33 3.3 0.66 5 1 C4.67 1.99 4.34 2.98 4 4 C4.99 4.33 5.98 4.66 7 5 C6.05125 5.45375 5.1025 5.9075 4.125 6.375 C0.99686321 7.80238254 0.99686321 7.80238254 -1 10 C-0.67 6.7 -0.34 3.4 0 0 Z " fill="#DCC5A3" transform="translate(189,206)"/>
<path d="M0 0 C0 1.32 0 2.64 0 4 C-1.96466413 5.06775224 -3.96855359 6.06553465 -6 7 C-6.66 6.67 -7.32 6.34 -8 6 C-3.375 0 -3.375 0 0 0 Z " fill="#1D2825" transform="translate(121,204)"/>
<path d="M0 0 C0.66 0 1.32 0 2 0 C1.45276317 3.37462715 0.9451 5.08235 -1 8 C-1.99 8 -2.98 8 -4 8 C-2.87548273 5.0280615 -1.77706209 2.66559313 0 0 Z " fill="#306F84" transform="translate(253,154)"/>
<path d="M0 0 C1.24546405 2.49092811 0.7767578 3.41080733 0 6 C0.99 6.33 1.98 6.66 3 7 C2.01 7.495 2.01 7.495 1 8 C-1.625 7.0625 -1.625 7.0625 -4 6 C-4 5.01 -4 4.02 -4 3 C-2 1.3125 -2 1.3125 0 0 Z " fill="#80C378" transform="translate(233,139)"/>
<path d="M0 0 C0.33 0 0.66 0 1 0 C1 2.97 1 5.94 1 9 C0.34 7.68 -0.32 6.36 -1 5 C-1.99 5.66 -2.98 6.32 -4 7 C-2.92598892 4.08482708 -2.22189824 2.22189824 0 0 Z " fill="#D5D5D5" transform="translate(218,206)"/>
<path d="M0 0 C0.66 0.99 1.32 1.98 2 3 C0.68 4.65 -0.64 6.3 -2 8 C-2 7.34 -2 6.68 -2 6 C-2.66 5.67 -3.32 5.34 -4 5 C-2.68 3.35 -1.36 1.7 0 0 Z " fill="#285E70" transform="translate(257,148)"/>
<path d="M0 0 C0.66 0.99 1.32 1.98 2 3 C1.34 4.32 0.68 5.64 0 7 C0 6.34 0 5.68 0 5 C-0.99 5.33 -1.98 5.66 -3 6 C-1.125 1.125 -1.125 1.125 0 0 Z " fill="#2D3534" transform="translate(123,148)"/>
<path d="M0 0 C0.33 0 0.66 0 1 0 C1.144375 1.11375 1.28875 2.2275 1.4375 3.375 C1.78372035 6.82142047 1.78372035 6.82142047 3 9 C2.01 9.99 1.02 10.98 0 12 C0 8.04 0 4.08 0 0 Z " fill="#4DA796" transform="translate(226,123)"/>
</svg>
